# xmcd
#
# Track frame offsets:
#	150
#	9217
#	18837
#	28455
#	40420
#	57000
#	73310
#	91260
#	103560
#	118407
#	132605
#	146985
#	159572
#	176187
#	187862
#	205562
#	218217
#	235440
#	250332
#	262922
#	277425
#
# Disc length: 3866
#
# Revision: 2
# Processed by: cddbd v1.5.1PL0 Copyright (c) Steve Scherf et al.
# Submitted via: OrangeCD 5.1
# Normalized: r1:DSETVAR1
#
DISCID=420f1815
DTITLE=Various Artist - The Best Ever Country Drinking Songs
DYEAR=2000
DGENRE=Country
TTITLE0=Roger Miller - Chug A Lug
TTITLE1=Hank Thompson - A Six Pack To Go
TTITLE2=Loretta Lynn - Don't Come Home A Drinkin' (With Lovin' On Your Mind)
TTITLE3=Tom T. Hall - Drowning My Blues
TTITLE4=Merle Haggard - I Think I'll Just Stay Here And Drink
TTITLE5=Slim Dusty - He's A Good Bloke When He's Sober
TTITLE6=David Frizzell - I'm Gonna Hire A Wino To Decorate Our Home
TTITLE7=Ernest Tubbs - Pass The Booze
TTITLE8=David Alan Coe - Jack Daniels,If You Please
TTITLE9=Hank Williams Jr - Whiskey Bent  And Hell Bound
TTITLE10=George Jones - If Drinkin'don't Kill Me
TTITLE11=Gary Stewart - She's Actin' Single (I'm Drinkin' Doubles)
TTITLE12=Steve Warner - A Six Pack Ago
TTITLE13=Jerry Lee Lewis - What Made Milwaukee Famous (Has Made A Loser Out Of Me)
TTITLE14=Billy Dean - Misery And Gin
TTITLE15=Mickey Gilley - Don't All Thr Girls Get Prettier At Closing Time
TTITLE16=The Mavericks - What A Crying Shame
TTITLE17=Emmylou Harris - Bottle Let Me Down
TTITLE18=Hank Williams Jr - There's A Tear In My Beer
TTITLE19=Keith Glass - Victoria Bitter (She Made Me That Way)
TTITLE20=Nev Nicholls - I Like Beer
EXTD=
EXTT0=
EXTT1=
EXTT2=
EXTT3=
EXTT4=
EXTT5=
EXTT6=
EXTT7=
EXTT8=
EXTT9=
EXTT10=
EXTT11=
EXTT12=
EXTT13=
EXTT14=
EXTT15=
EXTT16=
EXTT17=
EXTT18=
EXTT19=
EXTT20=
PLAYORDER=
